<svg width="32" height="32" viewBox="0 0 32 32" fill="none" xmlns="http://www.w3.org/2000/svg">
<g clip-path="url(#clip0_1_14)">
<rect width="32" height="32" rx="16" fill="#FDCA40"/>
<path d="M4 6.96279C4 6.5578 4.4563 6.32083 4.78759 6.55377L10.2418 10.3888C10.5082 10.5761 10.6667 10.8813 10.6667 11.2068V25.0372C10.6667 25.4422 10.2104 25.6792 9.87908 25.4462L4.42482 21.6112C4.15849 21.4239 4 21.1187 4 20.7932V6.96279Z" fill="black"/>
<path d="M28 6.96279C28 6.5578 27.5437 6.32083 27.2124 6.55377L21.7582 10.3888C21.4918 10.5761 21.3333 10.8813 21.3333 11.2068V25.0372C21.3333 25.4422 21.7896 25.6792 22.1209 25.4462L27.5752 21.6112C27.8415 21.4239 28 21.1187 28 20.7932V6.96279Z" fill="black"/>
<path d="M12 11.9209C12 11.9047 12.0183 11.8952 12.0315 11.9046L15.4233 14.2988C15.769 14.5428 16.231 14.5428 16.5767 14.2988L19.9685 11.9046C19.9817 11.8952 20 11.9047 20 11.9209V19.7343C20 20.1034 19.7967 20.4424 19.4712 20.6163L16.4712 22.2189C16.1767 22.3762 15.8233 22.3762 15.5288 22.2189L12.5288 20.6163C12.2033 20.4424 12 20.1034 12 19.7343V11.9209Z" fill="black"/>
</g>
<defs>
<clipPath id="clip0_1_14">
<rect width="32" height="32" fill="white"/>
</clipPath>
</defs>
</svg>
